<?xml version="1.0" encoding="utf-8"?>
<svg version="1.1" id="Layer_1" x="0px" y="0px" viewBox="21.65 4.58 116.339 112.548" style="enable-background:new 0 0 160 160;" xmlns="http://www.w3.org/2000/svg">
  <style type="text/css">
	.st0{fill:#DF3B26;}
	.st1{fill:#207495;}
	.st2{fill:#F2743A;}
	.st3{fill:#FAE2B6;}
	.st4{fill:#14294F;}
</style>
  <g>
    <g>
      <path class="st0" d="M80.169,10c-11.798,0-21.793,7.698-25.25,18.343c-0.839,2.585-1.299,5.341-1.299,8.205 c0,8.835,4.319,16.656,10.957,21.482c4.379,3.183,9.764,5.066,15.591,5.066c-1.801-5.542-1.675-11.246,0-16.394 c2.539-7.804,8.643-14.329,17.045-17.059c2.724-0.885,5.487-1.3,8.205-1.301C101.962,17.698,91.967,10,80.169,10z"/>
      <path class="st1" d="M64.578,58.03c-6.638-4.826-10.957-12.648-10.957-21.482c0-2.864,0.459-5.62,1.299-8.205 c-11.192-0.002-21.602,7.125-25.248,18.345c-3.646,11.22,0.587,23.105,9.643,29.682c2.199,1.597,4.678,2.885,7.402,3.77 c8.402,2.73,17.176,1.039,23.817-3.782c4.381-3.18,7.835-7.72,9.636-13.263C74.342,63.096,68.957,61.214,64.578,58.03z"/>
      <path class="st2" d="M130.667,46.689c-3.646-11.22-14.056-18.347-25.248-18.345c-2.717,0-5.48,0.415-8.205,1.301 c-8.402,2.73-14.506,9.255-17.045,17.059c-1.675,5.148-1.801,10.851,0,16.394c4.715-3.425,10.178-5.068,15.591-5.066 c8.207,0.003,16.298,3.792,21.491,10.939c1.684,2.317,2.932,4.817,3.772,7.401C130.08,69.793,134.313,57.909,130.667,46.689z"/>
      <path class="st3" d="M121.024,76.371c-0.84-2.584-2.089-5.084-3.772-7.401c-5.193-7.147-13.285-10.937-21.491-10.939 c-5.413-0.002-10.877,1.641-15.591,5.066c4.715,3.425,7.965,8.114,9.636,13.263c2.533,7.806,1.43,16.672-3.763,23.82 c-1.684,2.317-3.675,4.277-5.873,5.875c9.054,6.58,21.665,6.933,31.209-0.001C120.923,99.118,124.484,87.015,121.024,76.371z"/>
      <path class="st4" d="M89.805,76.359c-1.671-5.149-4.921-9.837-9.636-13.263c-1.801,5.542-5.255,10.082-9.636,13.263 c-6.641,4.822-15.414,6.512-23.817,3.782c-2.724-0.885-5.203-2.173-7.402-3.77c-3.46,10.644,0.101,22.747,9.645,29.681 c9.545,6.934,22.155,6.581,31.209,0.001c2.198-1.598,4.19-3.557,5.873-5.875C91.235,93.031,92.339,84.165,89.805,76.359z"/>
    </g>
    <g/>
  </g>
</svg>
